<?xml version="1.0" encoding="utf-8"?>
<!-- Generator: Adobe Illustrator 24.1.2, SVG Export Plug-In . SVG Version: 6.00 Build 0)  -->
<svg version="1.1" id="Layer_1" xmlns="http://www.w3.org/2000/svg" xmlns:xlink="http://www.w3.org/1999/xlink" x="0px" y="0px"
	 viewBox="0 0 105.8 63.5" style="enable-background:new 0 0 105.8 63.5;" xml:space="preserve">
<style type="text/css">
	.st0{fill:#38BDF8;}
</style>
<path class="st0" d="M52.9,0C38.8,0,30,7.1,26.4,21.2c5.3-7.1,11.5-9.7,18.5-7.9c4,1,6.9,3.9,10.1,7.2c5.2,5.3,11.2,11.4,24.3,11.4
	c14.1,0,22.9-7.1,26.4-21.2c-5.3,7.1-11.5,9.7-18.5,7.9c-4-1-6.9-3.9-10.1-7.2C72,6.1,66,0,52.9,0z M26.4,31.7
	C12.3,31.7,3.5,38.8,0,52.9c5.3-7.1,11.5-9.7,18.5-7.9c4,1,6.9,3.9,10.1,7.2c5.2,5.3,11.2,11.4,24.3,11.4c14.1,0,22.9-7.1,26.4-21.2
	c-5.3,7.1-11.5,9.7-18.5,7.9c-4-1-6.9-3.9-10.1-7.2C45.6,37.8,39.6,31.7,26.4,31.7z"/>
</svg>
