<?xml version="1.0" encoding="utf-8"?>
<!-- Generator: Adobe Illustrator 24.1.2, SVG Export Plug-In . SVG Version: 6.00 Build 0)  -->
<svg version="1.1"
	 id="svg56" inkscape:version="1.0.2-2 (e86c870879, 2021-01-15)" xmlns:cc="http://creativecommons.org/ns#" xmlns:dc="http://purl.org/dc/elements/1.1/" xmlns:inkscape="http://www.inkscape.org/namespaces/inkscape" xmlns:rdf="http://www.w3.org/1999/02/22-rdf-syntax-ns#" xmlns:sodipodi="http://sodipodi.sourceforge.net/DTD/sodipodi-0.dtd" xmlns:svg="http://www.w3.org/2000/svg"
	 xmlns="http://www.w3.org/2000/svg" xmlns:xlink="http://www.w3.org/1999/xlink" x="0px" y="0px" viewBox="0 0 3888.5 1117.7"
	 style="enable-background:new 0 0 3888.5 1117.7;" xml:space="preserve">
<style type="text/css">
	.st0{fill:#FFFFFF;}
	.st1{fill:#8ED6FB;}
	.st2{fill:#1C78C0;}
	.st3{fill:#1A1C1C;}
</style>
<sodipodi:namedview  bordercolor="#666666" borderopacity="1" gridtolerance="10" guidetolerance="10" id="namedview58" inkscape:current-layer="svg56" inkscape:cx="2328.4012" inkscape:cy="431.22766" inkscape:pageopacity="0" inkscape:pageshadow="2" inkscape:window-height="745" inkscape:window-maximized="1" inkscape:window-width="1366" inkscape:window-x="-8" inkscape:window-y="-8" inkscape:zoom="0.18815252" objecttolerance="10" pagecolor="#ffffff" showgrid="false">
	</sodipodi:namedview>
<path id="path48" class="st0" d="M493.9,0l493.9,279.4v558.9l-493.9,279.4L0,838.3V279.4L493.9,0z"/>
<path id="path50" class="st1" d="M899.7,819l-389.4,220.3V867.8l242.6-133.5L899.7,819z M926.3,794.9V334.3l-142.4,82.3v296.1
	L926.3,794.9z M86.7,819l389.4,220.3V867.8L233.3,734.3L86.7,819z M60,794.9V334.3l142.4,82.3v296.1L60,794.9z M76.7,304.4
	L476.1,78.5v165.8L220.2,385.1l-2,1.1L76.7,304.4z M909.6,304.4L510.3,78.5v165.8l255.9,140.6l2,1.1L909.6,304.4z"/>
<path id="path52" class="st2" d="M476.1,828.7L236.6,697V436.2l239.4,138.2V828.7z M510.3,828.7l239.4-131.6V436.2L510.3,574.5
	L510.3,828.7z M252.8,406.1L493.2,274l240.3,132.1L493.2,544.9L252.8,406.1z"/>
<path id="path54" class="st3" d="M1486,735.5h105.3l107.3-357.6H1596l-63.6,253.7l-67.8-253.7h-88.8l-68.4,253.7l-62.9-253.7h-102.6
	l106.7,357.6h105.3l66.4-229.1L1486,735.5z M1704.1,557.7c0,107.3,73.1,186.7,188.1,186.7c89,0,136.8-53.3,150.5-78.6l-62.3-47.2
	c-10.2,15.1-38.3,43.8-86.9,43.8c-52.7,0-91-34.2-93-82.1h251.8c0.6-6.9,0.6-13.7,0.6-20.5c0-116.9-62.9-190.8-173.7-190.8
	C1777.3,369,1704.1,449.6,1704.1,557.7z M1803.3,518.7c4.1-41,32.8-72.5,77.3-72.5c43.1,0,74.5,28.7,76.6,72.5H1803.3z
	 M2088.6,735.5h89v-36.9c9.6,11.6,45.2,45.8,106.1,45.8c102.6,0,175.1-77.2,175.1-187.4c0-110.8-67-188-169.6-188
	c-61.5,0-97.1,34.2-106.1,46.5V241.1h-94.3v494.4H2088.6z M2180.2,557.7c0-67,39.7-105.3,91.6-105.3c54.8,0,91.6,43.1,91.6,105.3
	c0,63.6-38.3,103.3-91.6,103.3C2214.4,661,2180.2,614.4,2180.2,557.7z M2495.4,863.4h94.3V698.5c8.9,11.6,44.4,45.8,106.1,45.8
	c102.6,0,169.6-77.2,169.6-188c0-109.4-72.5-187.4-175.1-187.4c-60.9,0-96.5,34.2-106.1,46.5v-37.7h-89v485.6H2495.4z M2587.1,555.7
	c0-56.8,34.2-103.3,91.6-103.3c53.3,0,91.6,39.7,91.6,103.3c0,62.3-36.9,105.3-91.6,105.3C2626.8,661,2587.1,622.7,2587.1,555.7z
	 M2882.5,624.8c0,75.2,61.5,119.7,134,119.7c41.1,0,68.4-12.3,86.9-32.2l6.1,23.2h83.5V509.1c0-80-34.2-140.1-149.1-140.1
	c-54.8,0-108.7,20.5-140.9,42.4l35.6,64.3c26.7-13.7,59.5-25.3,95.1-25.3c41.7,0,65,21.2,65,52.7v23.2c-13-8.9-41.1-19.8-77.3-19.8
	C2937.9,506.4,2882.5,554.3,2882.5,624.8L2882.5,624.8z M2976.9,621.9c0-29.4,25.3-49.9,61.5-49.9c36.2,0,62.3,18.5,62.3,49.9
	c0,30.1-26,49.3-61.5,49.3C3003.7,671.2,2976.9,651.4,2976.9,621.9L2976.9,621.9z M3422.2,661c-59.5,0-101.8-43.1-101.8-103.9
	c0-57.4,37.7-104.7,98.5-104.7c40.3,0,67.8,19.8,83.5,34.2l26.7-79.4c-23.2-17.7-60.2-38.3-112.8-38.3
	c-108.7,0-190.2,80-190.2,188.8s79.4,186.7,190.8,186.7c51.9,0,91-21.8,111.4-38.3L3503,629C3487.1,641.9,3458.4,661,3422.2,661z
	 M3563.7,735.5h94.3V550.9l119.7,184.7h110.8l-135.4-195.7L3879,377.8h-106.1L3658,528.3V241.1h-94.3V735.5z"/>
</svg>
