<?xml version="1.0" encoding="utf-8"?>
<!-- Generator: Adobe Illustrator 24.1.2, SVG Export Plug-In . SVG Version: 6.00 Build 0)  -->
<svg version="1.1" id="Layer_1" xmlns="http://www.w3.org/2000/svg" xmlns:xlink="http://www.w3.org/1999/xlink" x="0px" y="0px"
	 viewBox="0 0 1440 846" style="enable-background:new 0 0 1440 846;" xml:space="preserve">
<style type="text/css">
	.st0{fill:#FFFFFF;}
	.st1{fill:#6070FF;}
	.st2{fill:#EBEBFF;}
	.st3{fill:#FFFFFF;stroke:#EBEBFF;}
</style>
<path class="st0" d="M0-70h1440v916H146C65.4,846,0,780.6,0,700V-70z"/>
<g>
	<path class="st1" d="M1417.6,213c-8.6-15.3-20.8-28.4-35.4-38.2s-31.3-16-48.8-18.1s-35.2-0.1-51.7,5.9s-31.4,15.8-43.4,28.7
		c-12,12.8-20.9,28.3-25.8,45.2s-5.8,34.7-2.6,52c3.2,17.3,10.5,33.6,21.2,47.5c10.7,14,24.5,25.2,40.4,32.8l20.9-43.4
		c-9-4.3-16.9-10.7-23-18.7s-10.2-17.2-12.1-27.1c-1.8-9.8-1.3-20,1.5-29.6s7.8-18.4,14.7-25.8c6.9-7.3,15.3-12.9,24.7-16.3
		c9.4-3.4,19.5-4.6,29.4-3.4c9.9,1.2,19.5,4.7,27.8,10.3s15.2,13,20.2,21.7L1417.6,213z"/>
	<path class="st2" d="M280.2,788.8c2.3-2.8,4-6,4.8-9.6c0.8-3.5,0.8-7.2-0.1-10.7s-2.5-6.8-4.9-9.5s-5.3-4.9-8.6-6.3
		c-3.3-1.4-7-2-10.6-1.7s-7.1,1.4-10.2,3.3c-3.1,1.9-5.7,4.4-7.6,7.5c-1.9,3.1-3.1,6.5-3.4,10.1l9.9,0.9c0.2-2,0.8-4,1.9-5.8
		c1.1-1.7,2.6-3.2,4.3-4.3c1.8-1.1,3.7-1.7,5.8-1.9c2.1-0.2,4.1,0.2,6,1s3.6,2,4.9,3.6s2.3,3.4,2.8,5.4s0.5,4.1,0,6.1
		s-1.4,3.9-2.7,5.4L280.2,788.8z"/>
	<rect x="1144.1" y="130.9" transform="matrix(0.866 -0.5 0.5 0.866 89.7605 643.7427)" class="st2" width="204" height="47"/>
	
		<rect x="785.4" y="678.5" transform="matrix(0.3962 -0.9182 0.9182 0.3962 -214.0998 1192.7866)" class="st2" width="28.9" height="161.4"/>
	
		<rect x="691.6" y="209.7" transform="matrix(0.9774 -0.2114 0.2114 0.9774 -29.1225 156.973)" class="st1" width="56" height="10"/>
	
		<rect x="24.9" y="140.8" transform="matrix(0.6929 -0.7211 0.7211 0.6929 -84.1709 103.3863)" class="st2" width="108.7" height="19.4"/>
	<circle class="st1" cx="862.5" cy="745.5" r="23.5"/>
	<circle class="st2" cx="719.5" cy="232.5" r="11.5"/>
	<circle class="st3" cx="1211.5" cy="645.5" r="37"/>
	<circle class="st3" cx="984.5" cy="136.5" r="19"/>
	<circle class="st3" cx="386.5" cy="136.5" r="7"/>
	<circle class="st3" cx="84.5" cy="487.5" r="11"/>
	<path class="st1" d="M81,156.1c-4.2,9.8-4.3,20.9-0.3,30.8c4,9.9,11.7,17.8,21.5,22s20.9,4.3,30.8,0.3s17.8-11.7,22-21.5L81,156.1z
		"/>
	<path class="st1" d="M255.2,733c-0.3,4.9,1.3,9.7,4.5,13.4s7.8,5.9,12.6,6.3c4.9,0.3,9.7-1.3,13.4-4.5c3.7-3.2,5.9-7.8,6.3-12.6
		L255.2,733z"/>
</g>
</svg>
