<?xml version="1.0" encoding="utf-8"?>
<!-- Generator: Adobe Illustrator 24.1.2, SVG Export Plug-In . SVG Version: 6.00 Build 0)  -->
<svg version="1.1" id="Layer_1" xmlns="http://www.w3.org/2000/svg" xmlns:xlink="http://www.w3.org/1999/xlink" x="0px" y="0px"
	 viewBox="0 0 165.2 109.8" style="enable-background:new 0 0 165.2 109.8;" xml:space="preserve">
<style type="text/css">
	.st0{fill:#5F6CB2;}
	.st1{fill:#EBE9F5;}
</style>
<path class="st0" d="M10.8,32.3v28c0,2.4-0.4,4-1.2,4.9c-0.8,0.9-2.2,1.4-4.2,1.4c-1.7,0-3.4-0.3-5.3-0.8v10.6
	c2.7,0.7,5.8,1.1,9.1,1.1c3.8,0,6.8-0.7,9.1-2c2.2-1.3,3.7-3.1,4.5-5.3s1.2-5.5,1.2-9.8v-28H10.8z"/>
<g>
	<path class="st0" d="M27.7,54.9c0-1.5,0.1-3,0.2-4.5c-2,2.8-3,6.1-3,9.9c0,4.6,1.6,8.6,4.9,12c0.4,0.4,0.7,0.7,1.1,1.1
		C28.9,67.6,27.7,61.4,27.7,54.9z"/>
</g>
<path class="st0" d="M165.2,55.2v21.6h-13V56.8c0-1.8-0.2-3.1-0.6-3.8c-0.4-0.7-1.2-1-2.3-1c-0.9,0-1.7,0.3-2.3,0.8
	c-0.7,0.5-1.1,1.1-1.2,1.6c-0.1,0.6-0.2,1.8-0.2,3.6v18.7H133c2.9-6.7,4.5-14.1,4.5-21.9c0-8-1.7-15.6-4.8-22.5v-0.1h13v15.3
	c2.3-3.1,5.4-4.6,9.2-4.6c1.9,0,3.6,0.3,5,1c1.4,0.7,2.5,1.5,3.3,2.6c0.8,1,1.3,2,1.6,3C165.1,50.5,165.2,52.4,165.2,55.2z"/>
<path class="st1" d="M132.7,76.8V32.4C124.1,13.3,104.9,0,82.6,0C53.8,0,30.2,22.2,27.9,50.4c0.6-0.9,1.3-1.7,2.1-2.5
	c3.4-3.3,7.8-5,13.2-5c5.5,0,9.8,1.6,13.2,4.9s5,7.3,5,12.3c0,5-1.7,9.1-5,12.4c-3.4,3.3-7.8,5-13.4,5c-4.9,0-8.9-1.3-12-4.1
	c7.6,21.2,27.9,36.4,51.7,36.4c22.5,0,41.9-13.6,50.3-33H132.7z M94.7,77.5h-13V56.6c0-1.7-0.3-2.8-0.8-3.3c-0.5-0.5-1.2-0.7-2-0.7
	c-2.4,0-3.5,1.7-3.5,4.9v19.9h-13V44.4h12v4.7c1.8-3.6,5-5.4,9.5-5.4c2.4,0,4.4,0.5,6.1,1.4c1.7,0.9,2.8,2.1,3.6,3.6
	c0.7,1.5,1.1,4,1.1,7.6V77.5z M118.8,76.8c-0.3-1.4-0.4-2.9-0.4-4.6c-2.3,3.5-5.8,5.3-10.6,5.3c-3.9,0-6.8-1-8.7-3
	c-1.9-2-2.9-4.3-2.9-6.8c0-3.5,1.6-6.3,4.7-8.4c3.2-2.1,8.7-3.4,16.8-3.9v-0.7c0-1.5-0.3-2.4-1-2.9c-0.7-0.5-1.6-0.7-2.9-0.7
	c-3,0-4.6,1.2-5,3.6l-11.8-1.1c1.7-6.9,7.4-10.3,17.1-10.3c2.7,0,5.1,0.3,7.3,0.8c2.2,0.5,4,1.4,5.3,2.5c1.3,1.1,2.2,2.3,2.6,3.6
	c0.4,1.3,0.7,3.6,0.7,7.2v13.1c0,2.5,0.3,4.6,1,6.4H118.8z M109.5,66.7c0,2,1.1,3,3.3,3c1.4,0,2.5-0.4,3.5-1.2
	c1-0.8,1.5-2.6,1.5-5.4v-1.6C112.3,62,109.5,63.8,109.5,66.7z M46.5,53.2c-0.6-1.4-1.8-2-3.4-2c-1.5,0-2.6,0.7-3.3,2.1
	c-0.7,1.4-1,3.7-1,7c0,3.8,0.4,6.3,1.1,7.5c0.7,1.2,1.8,1.8,3.2,1.8c2,0,3.3-1.1,3.7-3.1c0.5-2.1,0.7-4.3,0.7-6.6
	C47.5,56.8,47.2,54.5,46.5,53.2z"/>
</svg>
