<?xml version="1.0" encoding="utf-8"?>
<!-- Generator: Adobe Illustrator 24.1.2, SVG Export Plug-In . SVG Version: 6.00 Build 0)  -->
<svg version="1.1" id="Layer_1" xmlns="http://www.w3.org/2000/svg" xmlns:xlink="http://www.w3.org/1999/xlink" x="0px" y="0px"
	 viewBox="0 0 838.4 77.6" style="enable-background:new 0 0 838.4 77.6;" xml:space="preserve">
<style type="text/css">
	.st0{fill:#1A1A1A;}
	.st1{fill:#333333;}
</style>
<g>
	<path class="st0" d="M31.1,77.6c-4.1,0-8-0.5-11.7-1.6c-3.7-1-7-2.6-9.9-4.7c-2.9-2.1-5.2-4.7-6.8-7.8C1.1,60.5,0.1,56.9,0,52.8
		c0-0.6,0.2-1.2,0.6-1.7c0.4-0.5,1-0.7,1.7-0.7h14.5c1,0,1.8,0.3,2.3,0.8c0.5,0.5,1,1.3,1.3,2.3c0.4,2,1.1,3.6,2.1,4.9
		c1,1.3,2.2,2.2,3.8,2.8c1.5,0.6,3.3,0.9,5.2,0.9c3.6,0,6.4-1.2,8.3-3.5c1.9-2.3,2.9-5.8,2.9-10.3V17.1c0,0-3.8-16.2-3.1-16.2
		l20.3,0.2c0.8,0,1.5,0.3,2,0.8c0.5,0.5,0.8,1.1,0.8,1.9v45c0,6.2-1.3,11.5-4,15.8c-2.7,4.3-6.4,7.5-11.2,9.7
		C42.9,76.5,37.4,77.6,31.1,77.6z"/>
	<path class="st0" d="M108.1,77.6c-6.6,0-12.4-1.1-17.2-3.2c-4.9-2.2-8.7-5.4-11.4-9.7c-2.7-4.3-4.2-9.8-4.5-16.3
		c-0.1-3.1-0.1-6.2-0.1-9.3s0-6.2,0.1-9.3c0.3-6.5,1.8-11.9,4.6-16.3c2.8-4.4,6.6-7.7,11.5-10C96,1.1,101.7,0,108.1,0
		c6.5,0,12.2,1.1,17.1,3.3c4.9,2.2,8.7,5.5,11.5,10c2.8,4.4,4.3,9.9,4.5,16.3c0.1,3.1,0.2,6.2,0.2,9.3s-0.1,6.2-0.2,9.3
		c-0.2,6.5-1.7,12-4.5,16.3c-2.8,4.3-6.6,7.6-11.5,9.7C120.5,76.5,114.7,77.6,108.1,77.6z M108.1,62c3.8,0,6.9-1.1,9.3-3.4
		c2.4-2.3,3.7-6,3.8-11c0.1-3.2,0.2-6.1,0.2-8.9c0-2.8-0.1-5.7-0.2-8.7c-0.1-3.4-0.8-6.1-1.9-8.2c-1.1-2.1-2.6-3.7-4.6-4.7
		c-1.9-1-4.2-1.5-6.7-1.5c-2.4,0-4.6,0.5-6.6,1.5c-1.9,1-3.5,2.6-4.6,4.7c-1.1,2.1-1.8,4.9-1.9,8.2c-0.1,3-0.1,5.9-0.1,8.7
		c0,2.8,0,5.8,0.1,8.9c0.2,5,1.5,8.7,3.9,11C101.3,60.9,104.4,62,108.1,62z"/>
	<path class="st0" d="M156.7,76.5c-0.8,0-1.4-0.3-1.9-0.8c-0.5-0.5-0.8-1.2-0.8-1.9v-70c0-0.8,0.3-1.4,0.8-1.9
		c0.5-0.5,1.1-0.8,1.9-0.8h11.4c1.2,0,2.1,0.3,2.6,0.8c0.5,0.5,0.9,1,1,1.2l26.3,41.4V3.8c0-0.8,0.3-1.4,0.8-1.9
		c0.5-0.5,1.1-0.8,1.9-0.8h12.9c0.8,0,1.4,0.3,1.9,0.8c0.5,0.5,0.8,1.1,0.8,1.9v69.9c0,0.8-0.3,1.5-0.8,2c-0.5,0.5-1.1,0.8-1.9,0.8
		h-11.5c-1.1,0-2-0.3-2.5-0.9c-0.5-0.6-0.9-1-1-1.2l-26.3-39.9v39.2c0,0.7-0.3,1.3-0.8,1.9c-0.5,0.5-1.1,0.8-1.9,0.8H156.7z"/>
	<path class="st0" d="M227.2,76.5c-0.6,0-1.1-0.2-1.6-0.7c-0.5-0.5-0.7-1-0.7-1.6c0-0.4,0-0.7,0.1-1l25.3-69.2
		c0.2-0.8,0.7-1.5,1.3-2.1c0.7-0.6,1.6-0.9,2.9-0.9h15.9c1.2,0,2.2,0.3,2.9,0.9c0.7,0.6,1.1,1.3,1.3,2.1l25.2,69.2
		c0.1,0.3,0.2,0.6,0.2,1c0,0.6-0.2,1.1-0.7,1.6c-0.5,0.5-1,0.7-1.7,0.7h-13.2c-1.1,0-1.9-0.3-2.4-0.8s-0.9-1-1-1.5l-4.2-11h-28.8
		l-4.1,11c-0.1,0.4-0.5,0.9-1,1.5c-0.5,0.5-1.4,0.8-2.6,0.8H227.2z M252.5,47.7h20l-10-28.4L252.5,47.7z"/>
	<path class="st0" d="M311.3,76.5c-0.8,0-1.4-0.3-1.9-0.8c-0.5-0.5-0.8-1.1-0.8-1.9v-70c0-0.8,0.3-1.4,0.8-1.9
		c0.5-0.5,1.1-0.8,1.9-0.8h13.9c0.8,0,1.5,0.3,2,0.8c0.5,0.5,0.8,1.1,0.8,1.9v26h26.5v-26c0-0.8,0.3-1.4,0.8-1.9
		c0.5-0.5,1.1-0.8,1.9-0.8h13.9c0.8,0,1.4,0.3,1.9,0.8c0.5,0.5,0.8,1.1,0.8,1.9v70c0,0.7-0.3,1.3-0.8,1.9c-0.5,0.5-1.1,0.8-1.9,0.8
		h-13.9c-0.8,0-1.4-0.3-1.9-0.8c-0.5-0.5-0.8-1.2-0.8-1.9V47H328v26.8c0,0.7-0.3,1.3-0.8,1.9s-1.2,0.8-2,0.8H311.3z"/>
	<path class="st1" d="M403.4,76.5c-0.9,0-1.7-0.3-2.2-0.8c-0.5-0.5-0.9-1.2-1.1-2.2L386.1,4.4c-0.1-0.3-0.1-0.5-0.1-0.8s0-0.4,0-0.4
		c0-0.6,0.2-1.1,0.6-1.5c0.4-0.4,0.9-0.6,1.5-0.6h5.6c1.5,0,2.4,0.6,2.6,1.8l11,55.6L419,20.4c0.2-0.6,0.6-1.2,1.1-1.8
		s1.3-0.8,2.3-0.8h4c1.1,0,1.9,0.3,2.4,0.8c0.5,0.5,0.8,1.1,1,1.8l11.7,38.1l10.9-55.6c0.2-1.2,1.1-1.8,2.7-1.8h5.6
		c0.6,0,1.1,0.2,1.5,0.6c0.4,0.4,0.6,0.9,0.6,1.5c0,0.1,0,0.2-0.1,0.4c0,0.2-0.1,0.5-0.1,0.8l-13.9,69.2c-0.2,0.9-0.6,1.7-1.1,2.2
		c-0.5,0.5-1.3,0.8-2.2,0.8h-4.2c-1,0-1.8-0.3-2.4-0.8c-0.6-0.5-1-1.1-1.2-1.9l-13.4-41l-13.2,41c-0.3,0.8-0.7,1.4-1.2,1.9
		c-0.5,0.5-1.3,0.8-2.3,0.8H403.4z"/>
	<path class="st1" d="M469,76.5c-0.6,0-1.1-0.2-1.5-0.6c-0.4-0.4-0.6-0.9-0.6-1.5c0-0.4,0-0.8,0.1-1.2l26.7-69.7
		c0.3-0.7,0.7-1.3,1.2-1.7c0.5-0.4,1.3-0.6,2.3-0.6h7.3c1,0,1.8,0.2,2.3,0.6c0.5,0.4,0.9,1,1.2,1.7l26.6,69.7
		c0.1,0.4,0.2,0.8,0.2,1.2c0,0.6-0.2,1.1-0.6,1.5c-0.4,0.4-0.9,0.6-1.5,0.6H527c-0.9,0-1.5-0.2-1.9-0.6c-0.4-0.4-0.7-0.8-0.8-1.2
		l-5.9-15.3h-35.3l-5.9,15.3c-0.1,0.4-0.3,0.8-0.8,1.2c-0.4,0.4-1.1,0.6-1.9,0.6H469z M486.2,50.1h29.1l-14.5-38.2L486.2,50.1z"/>
	<path class="st1" d="M548.7,76.5c-0.7,0-1.3-0.2-1.8-0.7c-0.5-0.5-0.7-1.1-0.7-1.8V3.7c0-0.8,0.2-1.4,0.7-1.9
		c0.5-0.5,1.1-0.7,1.8-0.7h5.4c0.9,0,1.5,0.2,1.9,0.6c0.4,0.4,0.7,0.8,0.9,1.1l22.7,43.5l22.9-43.5c0.1-0.3,0.4-0.6,0.8-1.1
		c0.4-0.4,1-0.6,1.9-0.6h5.3c0.8,0,1.4,0.2,1.9,0.7c0.5,0.5,0.7,1.1,0.7,1.9V74c0,0.7-0.2,1.3-0.7,1.8c-0.5,0.5-1.1,0.7-1.9,0.7
		h-5.3c-0.7,0-1.3-0.2-1.8-0.7c-0.5-0.5-0.7-1.1-0.7-1.8V21l-18,35.1c-0.3,0.7-0.7,1.3-1.3,1.7c-0.6,0.4-1.3,0.6-2.2,0.6H578
		c-0.9,0-1.7-0.2-2.2-0.6c-0.5-0.4-0.9-1-1.3-1.7L556.4,21v53c0,0.7-0.2,1.3-0.7,1.8c-0.5,0.5-1.1,0.7-1.8,0.7H548.7z"/>
	<path class="st1" d="M634.2,76.5c-0.8,0-1.4-0.2-1.8-0.7c-0.4-0.5-0.6-1.1-0.6-1.8V3.7c0-0.8,0.2-1.4,0.6-1.9
		c0.4-0.5,1-0.7,1.8-0.7h29.5c5.4,0,9.8,0.9,13.2,2.6c3.4,1.8,5.9,4.1,7.5,7.2c1.6,3,2.4,6.4,2.4,10.1c0,2.9-0.5,5.5-1.5,7.6
		c-1,2.1-2.2,3.8-3.6,5.2c-1.4,1.3-2.8,2.4-4.2,3.1c2.8,1.4,5.3,3.6,7.5,6.7c2.2,3.1,3.3,6.8,3.3,11.2c0,4-0.9,7.6-2.7,10.9
		c-1.8,3.3-4.5,5.9-8,7.9c-3.6,2-7.9,3-13.1,3H634.2z M642.3,33h19.8c4.6,0,8.1-1.1,10.4-3.2c2.4-2.1,3.6-5,3.6-8.7
		c0-3.7-1.2-6.5-3.6-8.4c-2.4-1.9-5.9-2.9-10.4-2.9h-19.8V33z M642.3,67.8h20.9c4.6,0,8.1-1.3,10.7-3.8c2.5-2.5,3.8-5.6,3.8-9.3
		c0-3.8-1.3-6.9-3.8-9.4c-2.5-2.5-6.1-3.7-10.7-3.7h-20.9V67.8z"/>
	<path class="st1" d="M732.1,77.6c-6,0-11.2-1.1-15.6-3.2c-4.3-2.2-7.7-5.4-10-9.9c-2.3-4.4-3.5-10.1-3.5-17.1V3.7
		c0-0.8,0.2-1.4,0.6-1.9c0.4-0.5,1-0.7,1.8-0.7h5.5c0.8,0,1.4,0.2,1.9,0.7c0.5,0.5,0.7,1.1,0.7,1.9v43.9c0,7,1.7,12.2,5,15.6
		c3.3,3.4,7.8,5.1,13.6,5.1c5.7,0,10.2-1.7,13.5-5.1c3.3-3.4,5-8.6,5-15.6V3.7c0-0.8,0.2-1.4,0.7-1.9c0.5-0.5,1.1-0.7,1.8-0.7h5.6
		c0.7,0,1.3,0.2,1.8,0.7c0.5,0.5,0.7,1.1,0.7,1.9v43.7c0,7-1.2,12.7-3.5,17.1c-2.3,4.4-5.7,7.7-10,9.9S738.2,77.6,732.1,77.6z"/>
	<path class="st1" d="M772.7,76.5c-0.6,0-1.1-0.2-1.5-0.6c-0.4-0.4-0.6-0.9-0.6-1.5c0-0.4,0-0.8,0.1-1.2l26.7-69.7
		c0.3-0.7,0.7-1.3,1.2-1.7c0.5-0.4,1.3-0.6,2.3-0.6h7.3c1,0,1.8,0.2,2.3,0.6c0.5,0.4,0.9,1,1.2,1.7l26.6,69.7
		c0.1,0.4,0.2,0.8,0.2,1.2c0,0.6-0.2,1.1-0.6,1.5c-0.4,0.4-0.9,0.6-1.5,0.6h-5.5c-0.9,0-1.5-0.2-1.9-0.6c-0.4-0.4-0.7-0.8-0.8-1.2
		l-5.9-15.3h-35.3l-5.9,15.3c-0.1,0.4-0.3,0.8-0.8,1.2c-0.4,0.4-1.1,0.6-1.9,0.6H772.7z M790,50.1H819l-14.5-38.2L790,50.1z"/>
</g>
</svg>
